<svg width="28" height="26" viewBox="0 0 28 26" fill="none" xmlns="http://www.w3.org/2000/svg">
<path d="M23.7778 2H4.72222C4.00024 2 3.30784 2.2868 2.79732 2.79732C2.2868 3.30784 2 4.00024 2 4.72222V18.3333C2 19.0553 2.2868 19.7477 2.79732 20.2582C3.30784 20.7687 4.00024 21.0556 4.72222 21.0556H9.06144C10.4226 21.0556 11.5278 22.1594 11.5278 23.5219C11.5278 24.6217 12.8562 25.1716 13.6334 24.3944L16.1746 21.8532C16.685 21.3426 17.3773 21.0557 18.0992 21.0556H23.7778C24.4998 21.0556 25.1922 20.7687 25.7027 20.2582C26.2132 19.7477 26.5 19.0553 26.5 18.3333V4.72222C26.5 4.00024 26.2132 3.30784 25.7027 2.79732C25.1922 2.2868 24.4998 2 23.7778 2Z" stroke="#666666" stroke-width="2.33333" stroke-linecap="round" stroke-linejoin="round"/>
</svg>
