<svg width="18" height="19" viewBox="0 0 18 19" fill="none" xmlns="http://www.w3.org/2000/svg">
<path d="M9.18365 7.5141V11.0707H14.1262C13.9091 12.2145 13.2579 13.183 12.2811 13.8342L15.2616 16.1469C16.9982 14.544 18 12.1896 18 9.39269C18 8.74149 17.9416 8.11526 17.833 7.5142L9.18365 7.5141Z" fill="#4285F4"/>
<path d="M4.0368 10.9318L3.36458 11.4464L0.985107 13.2998C2.49625 16.297 5.59346 18.3676 9.18345 18.3676C11.663 18.3676 13.7418 17.5494 15.2614 16.1468L12.2808 13.8342C11.4627 14.3852 10.419 14.7192 9.18345 14.7192C6.79568 14.7192 4.76696 13.1079 4.04056 10.9371L4.0368 10.9318Z" fill="#34A853"/>
<path d="M0.985097 5.06778C0.358965 6.30336 0 7.69765 0 9.18372C0 10.6698 0.358965 12.0641 0.985097 13.2997C0.985097 13.308 4.04084 10.9286 4.04084 10.9286C3.85717 10.3776 3.7486 9.79318 3.7486 9.18363C3.7486 8.57408 3.85717 7.98969 4.04084 7.43867L0.985097 5.06778Z" fill="#FBBC05"/>
<path d="M9.18364 3.65681C10.5362 3.65681 11.7384 4.12433 12.6985 5.02603L15.3284 2.39616C13.7337 0.910085 11.6633 0 9.18364 0C5.59365 0 2.49625 2.06217 0.985107 5.06778L4.04076 7.43886C4.76707 5.26813 6.79587 3.65681 9.18364 3.65681Z" fill="#EA4335"/>
</svg>
