<svg width="25" height="25" viewBox="0 0 25 25" fill="none" xmlns="http://www.w3.org/2000/svg">
<path d="M23.7778 22.0764V10.5069C23.7778 10.2956 23.7286 10.0872 23.6341 9.89824C23.5396 9.70924 23.4024 9.54484 23.2333 9.41806L13.7056 2.27222C13.47 2.09552 13.1834 2 12.8889 2C12.5944 2 12.3078 2.09552 12.0722 2.27222L2.54444 9.41806C2.3754 9.54484 2.23819 9.70924 2.1437 9.89824C2.0492 10.0872 2 10.2956 2 10.5069V22.0764C2 22.4374 2.1434 22.7836 2.39866 23.0388C2.65392 23.2941 3.00012 23.4375 3.36111 23.4375H8.80556C9.16654 23.4375 9.51275 23.2941 9.76801 23.0388C10.0233 22.7836 10.1667 22.4374 10.1667 22.0764V17.9931C10.1667 17.6321 10.3101 17.2859 10.5653 17.0306C10.8206 16.7753 11.1668 16.6319 11.5278 16.6319H14.25C14.611 16.6319 14.9572 16.7753 15.2124 17.0306C15.4677 17.2859 15.6111 17.6321 15.6111 17.9931V22.0764C15.6111 22.4374 15.7545 22.7836 16.0098 23.0388C16.265 23.2941 16.6112 23.4375 16.9722 23.4375H22.4167C22.7777 23.4375 23.1239 23.2941 23.3791 23.0388C23.6344 22.7836 23.7778 22.4374 23.7778 22.0764Z" stroke="#666666" stroke-width="2.33333" stroke-linecap="round" stroke-linejoin="round"/>
</svg>
