<svg width="27" height="26" viewBox="0 0 27 26" fill="none" xmlns="http://www.w3.org/2000/svg">
<path d="M4.55556 14.2222V4.44444C4.55556 3.79614 4.8248 3.17438 5.30406 2.71596C5.78332 2.25754 6.43334 2 7.11111 2H22.4444C23.1222 2 23.7722 2.25754 24.2515 2.71596C24.7308 3.17438 25 3.79614 25 4.44444V20.3333C25 21.5556 24.2333 24 21.1667 24M21.1667 24H5.83333C4.55556 24 2 23.2667 2 20.3333V17.8889H17.3333V20.3333C17.3333 23.2667 19.8889 24 21.1667 24ZM9.66667 6.88889H19.8889M9.66667 11.7778H14.7778" stroke="#666666" stroke-width="2.2" stroke-linecap="round" stroke-linejoin="round"/>
</svg>
