<svg width="28" height="28" viewBox="0 0 28 28" fill="none" xmlns="http://www.w3.org/2000/svg">
<path d="M4 19.7778V3.88889C4 3.12271 4.31607 2.38791 4.87868 1.84614C5.44129 1.30436 6.20435 1 7 1H25C25.7956 1 26.5587 1.30436 27.1213 1.84614C27.6839 2.38791 28 3.12271 28 3.88889V22.6667C28 24.1111 27.1 27 23.5 27M23.5 27H5.5C4 27 1 26.1333 1 22.6667V19.7778H19V22.6667C19 26.1333 22 27 23.5 27ZM10 6.77778H22ZM10 12.5556H16Z" fill="#6B4EFF"/>
<path d="M4 19.7778V3.88889C4 3.12271 4.31607 2.38791 4.87868 1.84614C5.44129 1.30436 6.20435 1 7 1H25C25.7956 1 26.5587 1.30436 27.1213 1.84614C27.6839 2.38791 28 3.12271 28 3.88889V22.6667C28 24.1111 27.1 27 23.5 27M23.5 27H5.5C4 27 1 26.1333 1 22.6667V19.7778H19V22.6667C19 26.1333 22 27 23.5 27ZM10 6.77778H22M10 12.5556H16" stroke="white" stroke-width="1.5" stroke-linecap="round" stroke-linejoin="round"/>
</svg>
