<svg width="22" height="21" viewBox="0 0 22 21" fill="none" xmlns="http://www.w3.org/2000/svg">
<path d="M3.22222 11.5606V3.07577C3.22222 2.51319 3.45635 1.97365 3.8731 1.57585C4.28984 1.17804 4.85507 0.954559 5.44444 0.954559H18.7778C19.3671 0.954559 19.9324 1.17804 20.3491 1.57585C20.7659 1.97365 21 2.51319 21 3.07577V16.8636C21 17.9243 20.3333 20.0455 17.6667 20.0455M17.6667 20.0455H4.33333C3.22222 20.0455 1 19.4091 1 16.8636V14.7424H14.3333V16.8636C14.3333 19.4091 16.5556 20.0455 17.6667 20.0455ZM7.66667 5.19698H16.5556M7.66667 9.43941H12.1111" stroke="#090A0A" stroke-width="1.5" stroke-linecap="round" stroke-linejoin="round"/>
</svg>
